<svg id="Capa_1" enable-background="new 0 0 512 512" height="512" viewBox="0 0 512 512" width="512" xmlns="http://www.w3.org/2000/svg"><path d="m508.098 4.908c-3.429-3.77-8.541-5.541-13.565-4.704-1.536.256-38.193 6.506-89.182 26.941-46.98 18.829-115.557 53.848-175.463 113.755l-32.47 32.47c-.002.002-.003.003-.005.005l-44.548 44.548c-20.274 20.273-35.391 45.492-43.717 72.93l-28.314 93.311v-16.994c0-8.284-6.716-15-15-15s-15 6.716-15 15v72.783l-46.439 46.44c-5.858 5.857-5.858 15.355 0 21.213 2.927 2.929 6.766 4.394 10.605 4.394s7.678-1.465 10.606-4.394l46.436-46.436h72.791c8.284 0 15-6.716 15-15s-6.716-15-15-15h-17.011l93.324-28.318c27.436-8.325 52.655-23.441 72.93-43.717l7.835-7.835c.002-.002.004-.003.005-.005l69.183-69.183c27.957-27.957 54.219-64.617 78.055-108.962 2.499-4.648 2.371-10.268-.337-14.798s-7.598-7.304-12.875-7.304h-20.19l58.99-37.331c2.604-1.647 4.637-4.058 5.823-6.902 20.554-49.293 30.515-86.402 30.929-87.958 1.312-4.924.032-10.178-3.396-13.949zm-53.419 86.005-98.7 62.461c-5.642 3.569-8.244 10.439-6.386 16.851s7.731 10.824 14.407 10.824h46.245c-18.951 31.896-39.193 58.686-60.358 79.851l-64.792 64.792h-25.531c-8.284 0-15 6.716-15 15 0 6.036 3.573 11.225 8.712 13.604-12.465 8.687-26.271 15.429-40.839 19.85l-76.617 23.249 178.56-178.56c5.858-5.857 5.858-15.355 0-21.213-5.857-5.857-15.355-5.857-21.213 0l-178.56 178.56 23.248-76.617c6.899-22.733 19.424-43.629 36.223-60.428l22.716-22.716c2.748 3.108 6.754 5.078 11.229 5.078 8.284 0 15-6.716 15-15v-16.307l28.079-28.079c56.066-56.066 120.462-89.024 164.61-106.8 23.858-9.605 44.552-15.942 59.401-19.899-4.627 14.159-11.432 33.543-20.434 55.499z"/></svg>